<svg height="512" viewBox="0 0 64 64" width="512" xmlns="http://www.w3.org/2000/svg"><g id="_15-Eyeliner" data-name="15-Eyeliner"><path d="m63 26-13.48-2.89a5.35 5.35 0 0 0 -1.05-.11h-46.47a1 1 0 0 1 -1-1 8 8 0 0 1 8-8h35.37a16.008 16.008 0 0 1 11.32 4.69z" fill="#5c514d"/><path d="m57 43a82.418 82.418 0 0 1 -28 5c-15 0-19.61-.92-19.98-.99a.031.031 0 0 0 -.02-.01s0-18 12-18c16 0 36 14 36 14z" fill="#d45f73"/><path d="m42.24 50.16c-.35.1-.7.2-1.06.29a7.965 7.965 0 0 0 3.82 4.55 8.108 8.108 0 0 1 -6.89-3.87c-.33.07-.66.13-1 .18.42 4.21 1.89 5.69 1.89 5.69-3.8-1.08-5.23-3.34-5.76-5.18-.37.03-.74.06-1.11.08l-2.13 7.1-1.4-7.01c-.32 0-.64 0-.94-.01-.57 1.81-2.02 3.97-5.71 5.02 0 0 1.38-1.39 1.85-5.3-.41-.05-.81-.1-1.19-.16a8.033 8.033 0 0 1 -6.61 3.46 8.178 8.178 0 0 0 3.65-4.03c-.53-.13-1.03-.26-1.51-.41a12.021 12.021 0 0 1 -6.14 1.44 16.747 16.747 0 0 0 3.88-2.22c-4.81-1.92-6.65-2.68-6.86-2.77.37.07 4.98.99 19.98.99a82.418 82.418 0 0 0 28-5 40.164 40.164 0 0 1 -7.91 4.72l1.91 1.28a25.738 25.738 0 0 1 -4.18-.35q-1.005.39-2.1.75a15.016 15.016 0 0 0 4.28 2.6 11.354 11.354 0 0 1 -6.76-1.84z" fill="#453d38"/><path d="m41.345 19h-28.652a2.5 2.5 0 1 1 0-5h-3.693a8 8 0 0 0 -8 8 1 1 0 0 0 1 1h46.47a5.35 5.35 0 0 1 1.05.11l13.48 2.89-8.969-4.185a30 30 0 0 0 -12.686-2.815z" fill="#3b3430"/><path d="m25.124 42.828a6.935 6.935 0 0 1 -.788-13.635 31.021 31.021 0 0 0 -3.336-.193c-12 0-12 18-12 18a.031.031 0 0 1 .02.01c.37.07 4.98.99 19.98.99a82.418 82.418 0 0 0 28-5c-8.963 2.068-23.631.809-31.876-.172z" fill="#b85162"/><path d="m57 43a82.418 82.418 0 0 1 -28 5c-15 0-19.61-.92-19.98-.99a.031.031 0 0 0 -.02-.01s1-3 7-3c4.8 0 25.59-.64 38.83-2.43a57.517 57.517 0 0 0 8.17-1.57z" fill="#0f0d0c"/><path d="m50.991 24.831-.07.06-4.03 4.03-.06.07-22.969-22.969a2.942 2.942 0 0 1 4.16-4.16z" fill="#3b3430"/><path d="m53 26.841v1.39l-.04.04-2.69 2.69-.04.04h-1.39l-2.01-2.01.06-.07 4.03-4.03.07-.06z" fill="#d45f73"/><path d="m52.961 28.271 1.319 1.32-.69.69-1.309 1.309-.69.69-1.32-1.319z" fill="#b85162"/><path d="m53.59 30.281c1.48.72 3.07 1.579 3.83 2.979l3.58 5.74-5.74-3.58c-1.4-.76-2.259-2.35-2.979-3.83z" fill="#0f0d0c"/><path d="m48.906 26.906-23.324-23.324a1.992 1.992 0 0 1 -.242-2.515 2.936 2.936 0 0 0 -1.478 4.955l22.969 22.969.06-.07z" fill="#0f0d0c"/><path d="m46.891 28.921-.06.07 2.01 2.009h1.39l.04-.041 1.345-1.344-2.71-2.71z" fill="#b85162"/></g></svg>